{
	"asset":{
		"generator":"Khronos glTF Blender I/O v4.0.43",
		"version":"2.0"
	},
	"scene":0,
	"scenes":[
		{
			"name":"Scene",
			"nodes":[
				0
			]
		}
	],
	"nodes":[
		{
			"mesh":0,
			"name":"Cube",
			"translation":[
				0,
				0,
				-0.11096595227718353
			]
		}
	],
	"animations":[
		{
			"channels":[
				{
					"sampler":0,
					"target":{
						"node":0,
						"path":"translation"
					}
				},
				{
					"sampler":1,
					"target":{
						"node":0,
						"path":"rotation"
					}
				},
				{
					"sampler":2,
					"target":{
						"node":0,
						"path":"scale"
					}
				}
			],
			"name":"CubeAction",
			"samplers":[
				{
					"input":4,
					"interpolation":"LINEAR",
					"output":5
				},
				{
					"input":6,
					"interpolation":"STEP",
					"output":7
				},
				{
					"input":6,
					"interpolation":"STEP",
					"output":8
				}
			]
		}
	],
	"materials":[
		{
			"doubleSided":true,
			"name":"Material.001",
			"pbrMetallicRoughness":{
				"baseColorFactor":[
					0.6677745580673218,
					0,
					0.8003470301628113,
					1
				],
				"metallicFactor":0,
				"roughnessFactor":0.5
			}
		}
	],
	"meshes":[
		{
			"name":"Cube.001",
			"primitives":[
				{
					"attributes":{
						"POSITION":0,
						"NORMAL":1,
						"TEXCOORD_0":2
					},
					"indices":3,
					"material":0
				}
			]
		}
	],
	"accessors":[
		{
			"bufferView":0,
			"componentType":5126,
			"count":159,
			"max":[
				0.5627288222312927,
				0.5627288818359375,
				2.9177279472351074
			],
			"min":[
				-0.5627288222312927,
				-0.5627288222312927,
				0.14197368919849396
			],
			"type":"VEC3"
		},
		{
			"bufferView":1,
			"componentType":5126,
			"count":159,
			"type":"VEC3"
		},
		{
			"bufferView":2,
			"componentType":5126,
			"count":159,
			"type":"VEC2"
		},
		{
			"bufferView":3,
			"componentType":5123,
			"count":720,
			"type":"SCALAR"
		},
		{
			"bufferView":4,
			"componentType":5126,
			"count":50,
			"max":[
				2.0833333333333335
			],
			"min":[
				0.041666666666666664
			],
			"type":"SCALAR"
		},
		{
			"bufferView":5,
			"componentType":5126,
			"count":50,
			"type":"VEC3"
		},
		{
			"bufferView":6,
			"componentType":5126,
			"count":2,
			"max":[
				2.0833333333333335
			],
			"min":[
				0.041666666666666664
			],
			"type":"SCALAR"
		},
		{
			"bufferView":7,
			"componentType":5126,
			"count":2,
			"type":"VEC4"
		},
		{
			"bufferView":8,
			"componentType":5126,
			"count":2,
			"type":"VEC3"
		}
	],
	"bufferViews":[
		{
			"buffer":0,
			"byteLength":1908,
			"byteOffset":0,
			"target":34962
		},
		{
			"buffer":0,
			"byteLength":1908,
			"byteOffset":1908,
			"target":34962
		},
		{
			"buffer":0,
			"byteLength":1272,
			"byteOffset":3816,
			"target":34962
		},
		{
			"buffer":0,
			"byteLength":1440,
			"byteOffset":5088,
			"target":34963
		},
		{
			"buffer":0,
			"byteLength":200,
			"byteOffset":6528
		},
		{
			"buffer":0,
			"byteLength":600,
			"byteOffset":6728
		},
		{
			"buffer":0,
			"byteLength":8,
			"byteOffset":7328
		},
		{
			"buffer":0,
			"byteLength":32,
			"byteOffset":7336
		},
		{
			"buffer":0,
			"byteLength":24,
			"byteOffset":7368
		}
	],
	"buffers":[
		{
			"byteLength":7392,
			"uri":"arrow.bin"
		}
	]
}
